<svg width="384.60751953125px" height="131.6262939453125px" xmlns="http://www.w3.org/2000/svg" viewBox="57.69624023437501 9.186853027343744 384.60751953125 131.6262939453125" style="background: none;" preserveAspectRatio="xMidYMid"><defs><filter id="editing-hole" x="-100%" y="-100%" width="300%" height="300%"><feFlood flood-color="#ffffff" result="black"></feFlood><feMorphology operator="dilate" radius="2" in="SourceGraphic" result="erode"></feMorphology><feGaussianBlur in="erode" stdDeviation="4" result="blur"></feGaussianBlur><feOffset in="blur" dx="2" dy="2" result="offset"></feOffset><feComposite operator="atop" in="offset" in2="black" result="merge"></feComposite><feComposite operator="in" in="merge" in2="SourceGraphic" result="inner-shadow"></feComposite></filter></defs><g filter="url(#editing-hole)"><g transform="translate(115.3999993801117, 95.30031204223633)"><path d="M25.90 0L21.29 0L21.29-13.70L21.29-13.70Q21.29-16.04 20.98-17.56L20.98-17.56L20.98-17.56Q20.67-19.08 20.05-19.96L20.05-19.96L20.05-19.96Q19.42-20.84 18.49-21.19L18.49-21.19L18.49-21.19Q17.56-21.54 16.31-21.54L16.31-21.54L16.31-21.54Q14.97-21.54 13.68-20.91L13.68-20.91L13.68-20.91Q12.40-20.27 11.33-19.26L11.33-19.26L11.33-19.26Q10.26-18.25 9.44-16.98L9.44-16.98L9.44-16.98Q8.62-15.71 8.22-14.44L8.22-14.44L8.22 0L3.61 0L3.61-28.14L3.61-28.14Q3.61-32.17 3.56-35.20L3.56-35.20L3.56-35.20Q3.51-38.23 3.24-39.84L3.24-39.84L8.22-39.84L8.22-20.67L8.22-20.67Q10.06-23.28 12.55-24.59L12.55-24.59L12.55-24.59Q15.04-25.90 17.68-25.90L17.68-25.90L17.68-25.90Q21.67-25.90 23.78-23.30L23.78-23.30L23.78-23.30Q25.90-20.69 25.90-15.56L25.90-15.56L25.90 0ZM53.89-12.08L36.23-12.08L36.23-12.08Q36.31-9.89 36.92-8.27L36.92-8.27L36.92-8.27Q37.53-6.65 38.59-5.59L38.59-5.59L38.59-5.59Q39.64-4.53 41.08-4.01L41.08-4.01L41.08-4.01Q42.51-3.49 44.20-3.49L44.20-3.49L44.20-3.49Q46.62-3.49 48.93-4.03L48.93-4.03L48.93-4.03Q51.25-4.58 53.54-5.98L53.54-5.98L54.04-1.87L54.04-1.87Q52.72-1.20 51.45-0.72L51.45-0.72L51.45-0.72Q50.18-0.25 48.91 0.05L48.91 0.05L48.91 0.05Q47.64 0.35 46.33 0.49L46.33 0.49L46.33 0.49Q45.02 0.62 43.58 0.62L43.58 0.62L43.58 0.62Q41.19 0.62 39.02-0.21L39.02-0.21L39.02-0.21Q36.86-1.05 35.21-2.68L35.21-2.68L35.21-2.68Q33.57-4.31 32.60-6.72L32.60-6.72L32.60-6.72Q31.63-9.14 31.63-12.33L31.63-12.33L31.63-12.33Q31.63-15.41 32.46-17.92L32.46-17.92L32.46-17.92Q33.29-20.42 34.84-22.20L34.84-22.20L34.84-22.20Q36.38-23.98 38.60-24.94L38.60-24.94L38.60-24.94Q40.81-25.90 43.58-25.90L43.58-25.90L43.58-25.90Q45.62-25.90 47.19-25.41L47.19-25.41L47.19-25.41Q48.76-24.93 49.90-24.07L49.90-24.07L49.90-24.07Q51.05-23.21 51.82-22.06L51.82-22.06L51.82-22.06Q52.59-20.92 53.05-19.60L53.05-19.60L53.05-19.60Q53.52-18.28 53.71-16.85L53.71-16.85L53.71-16.85Q53.91-15.41 53.91-14.02L53.91-14.02L53.91-13.05L53.91-13.05Q53.91-12.43 53.89-12.08L53.89-12.08ZM43.21-22.16L43.21-22.16L43.21-22.16Q40.47-22.16 38.72-20.56L38.72-20.56L38.72-20.56Q36.98-18.95 36.43-15.56L36.43-15.56L49.43-15.56L49.43-15.56Q49.43-17.16 48.97-18.39L48.97-18.39L48.97-18.39Q48.51-19.62 47.68-20.47L47.68-20.47L47.68-20.47Q46.84-21.32 45.70-21.74L45.70-21.74L45.70-21.74Q44.55-22.16 43.21-22.16ZM65.87-39.84L65.87-11.83L65.87-11.83Q65.87-10.63 65.90-9.01L65.90-9.01L65.90-9.01Q65.94-7.40 66.00-5.73L66.00-5.73L66.00-5.73Q66.07-4.06 66.15-2.54L66.15-2.54L66.15-2.54Q66.24-1.02 66.36 0L66.36 0L61.26 0L61.26-28.14L61.26-28.14Q61.26-31.78 61.14-34.73L61.14-34.73L61.14-34.73Q61.01-37.68 60.76-39.84L60.76-39.84L65.87-39.84ZM79.94-39.84L79.94-11.83L79.94-11.83Q79.94-10.63 79.97-9.01L79.97-9.01L79.97-9.01Q80.01-7.40 80.07-5.73L80.07-5.73L80.07-5.73Q80.14-4.06 80.22-2.54L80.22-2.54L80.22-2.54Q80.31-1.02 80.43 0L80.43 0L75.33 0L75.33-28.14L75.33-28.14Q75.33-31.78 75.21-34.73L75.21-34.73L75.21-34.73Q75.08-37.68 74.83-39.84L74.83-39.84L79.94-39.84ZM91.64-12.58L91.64-12.58L91.64-12.58Q91.64-10.41 92.16-8.69L92.16-8.69L92.16-8.69Q92.69-6.97 93.65-5.79L93.65-5.79L93.65-5.79Q94.60-4.61 95.92-3.98L95.92-3.98L95.92-3.98Q97.24-3.36 98.86-3.36L98.86-3.36L98.86-3.36Q100.36-3.36 101.68-3.98L101.68-3.98L101.68-3.98Q103.00-4.61 103.98-5.79L103.98-5.79L103.98-5.79Q104.96-6.97 105.52-8.69L105.52-8.69L105.52-8.69Q106.08-10.41 106.08-12.58L106.08-12.58L106.08-12.58Q106.08-14.77 105.56-16.50L105.56-16.50L105.56-16.50Q105.04-18.23 104.08-19.44L104.08-19.44L104.08-19.44Q103.12-20.64 101.79-21.28L101.79-21.28L101.79-21.28Q100.46-21.91 98.86-21.91L98.86-21.91L98.86-21.91Q97.34-21.91 96.02-21.28L96.02-21.28L96.02-21.28Q94.70-20.64 93.73-19.44L93.73-19.44L93.73-19.44Q92.76-18.23 92.20-16.50L92.20-16.50L92.20-16.50Q91.64-14.77 91.64-12.58ZM87.03-12.58L87.03-12.58L87.03-12.58Q87.03-15.79 88.00-18.27L88.00-18.27L88.00-18.27Q88.98-20.74 90.62-22.45L90.62-22.45L90.62-22.45Q92.26-24.16 94.45-25.03L94.45-25.03L94.45-25.03Q96.65-25.90 99.11-25.90L99.11-25.90L99.11-25.90Q101.68-25.90 103.81-25.03L103.81-25.03L103.81-25.03Q105.93-24.16 107.47-22.45L107.47-22.45L107.47-22.45Q109.00-20.74 109.84-18.27L109.84-18.27L109.84-18.27Q110.69-15.79 110.69-12.58L110.69-12.58L110.69-12.58Q110.69-9.36 109.72-6.90L109.72-6.90L109.72-6.90Q108.75-4.43 107.10-2.76L107.10-2.76L107.10-2.76Q105.46-1.10 103.27-0.24L103.27-0.24L103.27-0.24Q101.08 0.62 98.61 0.62L98.61 0.62L98.61 0.62Q96.05 0.62 93.92-0.24L93.92-0.24L93.92-0.24Q91.79-1.10 90.26-2.76L90.26-2.76L90.26-2.76Q88.73-4.43 87.88-6.90L87.88-6.90L87.88-6.90Q87.03-9.36 87.03-12.58ZM127.75-21.17L127.75-24.78L132.73-24.78L132.73-29.14L132.73-29.14Q132.73-34.74 135.01-37.54L135.01-37.54L135.01-37.54Q137.29-40.34 141.32-40.34L141.32-40.34L141.32-40.34Q142.79-40.34 144.21-39.88L144.21-39.88L144.21-39.88Q145.63-39.42 146.80-38.60L146.80-38.60L145.68-34.61L145.68-34.61Q144.73-35.31 143.57-35.71L143.57-35.71L143.57-35.71Q142.42-36.11 141.32-36.11L141.32-36.11L141.32-36.11Q139.38-36.11 138.36-34.71L138.36-34.71L138.36-34.71Q137.34-33.32 137.34-30.13L137.34-30.13L137.34-24.78L144.06-24.78L144.06-21.17L137.34-21.17L137.34-12.30L137.34-12.30Q137.34-10.48 137.37-8.70L137.37-8.70L137.37-8.70Q137.41-6.92 137.50-5.32L137.50-5.32L137.50-5.32Q137.59-3.71 137.73-2.34L137.73-2.34L137.73-2.34Q137.88-0.97 138.08 0L138.08 0L132.73 0L132.73-21.17L127.75-21.17ZM153.90 0L149.29 0L149.29-15.31L149.29-15.31Q149.29-19.00 148.88-21.55L148.88-21.55L148.88-21.55Q148.47-24.11 148.04-25.40L148.04-25.40L152.53-25.40L152.53-25.40Q152.68-25.00 152.83-24.37L152.83-24.37L152.83-24.37Q152.98-23.73 153.10-23.03L153.10-23.03L153.10-23.03Q153.22-22.34 153.32-21.67L153.32-21.67L153.52-20.54L153.52-20.54Q154.42-21.84 155.48-22.84L155.48-22.84L155.48-22.84Q156.54-23.83 157.62-24.52L157.62-24.52L157.62-24.52Q158.70-25.20 159.74-25.55L159.74-25.55L159.74-25.55Q160.77-25.90 161.62-25.90L161.62-25.90L161.62-25.90Q163.19-25.90 164.27-25.21L164.27-25.21L164.27-25.21Q165.35-24.53 166.04-23.37L166.04-23.37L166.04-23.37Q166.72-22.21 167.03-20.71L167.03-20.71L167.03-20.71Q167.34-19.20 167.34-17.56L167.34-17.56L163.36-16.68L163.36-16.68Q163.31-17.68 163.12-18.53L163.12-18.53L163.12-18.53Q162.94-19.37 162.60-20.00L162.60-20.00L162.60-20.00Q162.26-20.62 161.75-20.96L161.75-20.96L161.75-20.96Q161.24-21.29 160.50-21.29L160.50-21.29L160.50-21.29Q159.70-21.29 158.73-20.69L158.73-20.69L158.73-20.69Q157.76-20.10 156.82-19.14L156.82-19.14L156.82-19.14Q155.89-18.18 155.09-16.95L155.09-16.95L155.09-16.95Q154.29-15.71 153.90-14.44L153.90-14.44L153.90 0ZM171.45-33.49L171.45-33.49L171.45-33.49Q171.45-34.19 171.68-34.80L171.68-34.80L171.68-34.80Q171.90-35.41 172.31-35.87L172.31-35.87L172.31-35.87Q172.72-36.33 173.30-36.59L173.30-36.59L173.30-36.59Q173.87-36.86 174.57-36.86L174.57-36.86L174.57-36.86Q175.26-36.86 175.86-36.59L175.86-36.59L175.86-36.59Q176.46-36.33 176.88-35.87L176.88-35.87L176.88-35.87Q177.30-35.41 177.55-34.80L177.55-34.80L177.55-34.80Q177.80-34.19 177.80-33.49L177.80-33.49L177.80-33.49Q177.80-32.80 177.55-32.19L177.55-32.19L177.55-32.19Q177.30-31.58 176.88-31.12L176.88-31.12L176.88-31.12Q176.46-30.65 175.86-30.39L175.86-30.39L175.86-30.39Q175.26-30.13 174.57-30.13L174.57-30.13L174.57-30.13Q173.87-30.13 173.30-30.39L173.30-30.39L173.30-30.39Q172.72-30.65 172.31-31.12L172.31-31.12L172.31-31.12Q171.90-31.58 171.68-32.19L171.68-32.19L171.68-32.19Q171.45-32.80 171.45-33.49ZM176.93-25.40L176.93-11.83L176.93-11.83Q176.93-10.63 176.97-9.00L176.97-9.00L176.97-9.00Q177.01-7.37 177.07-5.70L177.07-5.70L177.07-5.70Q177.13-4.03 177.22-2.52L177.22-2.52L177.22-2.52Q177.30-1.00 177.43 0L177.43 0L172.32 0L172.32-13.20L172.32-13.20Q172.32-15.02 172.31-16.78L172.31-16.78L172.31-16.78Q172.30-18.55 172.26-20.13L172.26-20.13L172.26-20.13Q172.22-21.71 172.15-23.07L172.15-23.07L172.15-23.07Q172.08-24.43 171.95-25.40L171.95-25.40L176.93-25.40ZM206.29-12.08L188.64-12.08L188.64-12.08Q188.71-9.89 189.32-8.27L189.32-8.27L189.32-8.27Q189.93-6.65 190.99-5.59L190.99-5.59L190.99-5.59Q192.05-4.53 193.48-4.01L193.48-4.01L193.48-4.01Q194.91-3.49 196.60-3.49L196.60-3.49L196.60-3.49Q199.02-3.49 201.34-4.03L201.34-4.03L201.34-4.03Q203.65-4.58 205.94-5.98L205.94-5.98L206.44-1.87L206.44-1.87Q205.12-1.20 203.85-0.72L203.85-0.72L203.85-0.72Q202.58-0.25 201.31 0.05L201.31 0.05L201.31 0.05Q200.04 0.35 198.73 0.49L198.73 0.49L198.73 0.49Q197.43 0.62 195.98 0.62L195.98 0.62L195.98 0.62Q193.59 0.62 191.42-0.21L191.42-0.21L191.42-0.21Q189.26-1.05 187.61-2.68L187.61-2.68L187.61-2.68Q185.97-4.31 185.00-6.72L185.00-6.72L185.00-6.72Q184.03-9.14 184.03-12.33L184.03-12.33L184.03-12.33Q184.03-15.41 184.86-17.92L184.86-17.92L184.86-17.92Q185.70-20.42 187.24-22.20L187.24-22.20L187.24-22.20Q188.78-23.98 191.00-24.94L191.00-24.94L191.00-24.94Q193.22-25.90 195.98-25.90L195.98-25.90L195.98-25.90Q198.02-25.90 199.59-25.41L199.59-25.41L199.59-25.41Q201.16-24.93 202.31-24.07L202.31-24.07L202.31-24.07Q203.45-23.21 204.22-22.06L204.22-22.06L204.22-22.06Q205.00-20.92 205.46-19.60L205.46-19.60L205.46-19.60Q205.92-18.28 206.12-16.85L206.12-16.85L206.12-16.85Q206.32-15.41 206.32-14.02L206.32-14.02L206.32-13.05L206.32-13.05Q206.32-12.43 206.29-12.08L206.29-12.08ZM195.61-22.16L195.61-22.16L195.61-22.16Q192.87-22.16 191.13-20.56L191.13-20.56L191.13-20.56Q189.38-18.95 188.83-15.56L188.83-15.56L201.83-15.56L201.83-15.56Q201.83-17.16 201.37-18.39L201.37-18.39L201.37-18.39Q200.91-19.62 200.08-20.47L200.08-20.47L200.08-20.47Q199.24-21.32 198.10-21.74L198.10-21.74L198.10-21.74Q196.95-22.16 195.61-22.16ZM235.08 0L230.47 0L230.47-13.70L230.47-13.70Q230.47-16.04 230.16-17.56L230.16-17.56L230.16-17.56Q229.85-19.08 229.24-19.96L229.24-19.96L229.24-19.96Q228.63-20.84 227.69-21.19L227.69-21.19L227.69-21.19Q226.76-21.54 225.49-21.54L225.49-21.54L225.49-21.54Q224.15-21.54 222.86-20.91L222.86-20.91L222.86-20.91Q221.58-20.27 220.51-19.26L220.51-19.26L220.51-19.26Q219.44-18.25 218.62-16.98L218.62-16.98L218.62-16.98Q217.80-15.71 217.40-14.44L217.40-14.44L217.40 0L212.79 0L212.79-15.31L212.79-15.31Q212.79-19.00 212.38-21.55L212.38-21.55L212.38-21.55Q211.97-24.11 211.55-25.40L211.55-25.40L216.03-25.40L216.03-25.40Q216.18-25.00 216.33-24.37L216.33-24.37L216.33-24.37Q216.48-23.73 216.60-23.03L216.60-23.03L216.60-23.03Q216.73-22.34 216.82-21.67L216.82-21.67L217.02-20.54L217.02-20.54Q219.39-23.38 221.81-24.64L221.81-24.64L221.81-24.64Q224.22-25.90 226.86-25.90L226.86-25.90L226.86-25.90Q230.84-25.90 232.96-23.30L232.96-23.30L232.96-23.30Q235.08-20.69 235.08-15.56L235.08-15.56L235.08 0ZM259.48-9.96L259.48-19.80L259.48-19.80Q258.56-20.30 257.76-20.64L257.76-20.64L257.76-20.64Q256.97-20.99 256.20-21.22L256.20-21.22L256.20-21.22Q255.42-21.44 254.63-21.55L254.63-21.55L254.63-21.55Q253.83-21.67 252.88-21.67L252.88-21.67L252.88-21.67Q251.46-21.67 250.17-21.02L250.17-21.02L250.17-21.02Q248.87-20.37 247.87-19.15L247.87-19.15L247.87-19.15Q246.86-17.93 246.26-16.17L246.26-16.17L246.26-16.17Q245.66-14.42 245.66-12.20L245.66-12.20L245.66-12.20Q245.66-7.84 247.14-5.60L247.14-5.60L247.14-5.60Q248.63-3.36 251.89-3.36L251.89-3.36L251.89-3.36Q253.03-3.36 254.17-3.93L254.17-3.93L254.17-3.93Q255.30-4.51 256.31-5.43L256.31-5.43L256.31-5.43Q257.32-6.35 258.14-7.53L258.14-7.53L258.14-7.53Q258.96-8.72 259.48-9.96L259.48-9.96ZM264.09-39.84L264.09-13.20L264.09-13.20Q264.09-8.49 264.62-5.29L264.62-5.29L264.62-5.29Q265.16-2.09 265.96 0L265.96 0L261.47 0L261.47 0Q261.20-0.65 260.81-1.93L260.81-1.93L260.81-1.93Q260.43-3.21 260.10-4.61L260.10-4.61L260.10-4.61Q258.31-2.07 256.05-0.72L256.05-0.72L256.05-0.72Q253.78 0.62 251.02 0.62L251.02 0.62L251.02 0.62Q248.72 0.62 246.89-0.24L246.89-0.24L246.89-0.24Q245.06-1.10 243.76-2.68L243.76-2.68L243.76-2.68Q242.45-4.26 241.75-6.49L241.75-6.49L241.75-6.49Q241.05-8.72 241.05-11.46L241.05-11.46L241.05-11.46Q241.05-14.77 241.96-17.43L241.96-17.43L241.96-17.43Q242.87-20.10 244.47-21.98L244.47-21.98L244.47-21.98Q246.06-23.86 248.21-24.88L248.21-24.88L248.21-24.88Q250.37-25.90 252.88-25.90L252.88-25.90L252.88-25.90Q253.68-25.90 254.54-25.72L254.54-25.72L254.54-25.72Q255.40-25.55 256.26-25.25L256.26-25.25L256.26-25.25Q257.12-24.95 257.94-24.57L257.94-24.57L257.94-24.57Q258.76-24.18 259.48-23.78L259.48-23.78L259.48-30.75L259.48-30.75Q259.48-33.77 259.35-36.02L259.35-36.02L259.35-36.02Q259.21-38.27 258.86-39.84L258.86-39.84L264.09-39.84Z" fill="#ffffff"></path></g></g><style>text {
  font-size: 64px;
  font-family: Arial Black;
  dominant-baseline: central;
  text-anchor: middle;
}</style></svg>