<?xml version="1.0" standalone="no"?>
<!DOCTYPE svg PUBLIC "-//W3C//DTD SVG 20010904//EN"
 "http://www.w3.org/TR/2001/REC-SVG-20010904/DTD/svg10.dtd">
<svg version="1.0" xmlns="http://www.w3.org/2000/svg"
 width="200pt" height="200pt" viewBox="0 0 200 200"
 preserveAspectRatio="xMidYMid meet">
<metadata>
Created by potrace 1.15, written by Peter Selinger 2001-2017
</metadata>
<g transform="translate(0,200) scale(0.1,-0.1)"
fill="#000000" stroke="none">
<path d="M933 1750 c-83 -12 -220 -60 -289 -101 -30 -19 -84 -58 -120 -87
l-64 -54 0 92 c0 83 -2 93 -25 115 -21 21 -33 25 -88 25 -50 0 -70 -5 -91 -21
l-26 -20 0 -290 c0 -276 1 -290 20 -309 19 -19 33 -20 310 -20 346 0 330 -6
330 113 0 102 -10 110 -143 117 l-101 5 49 42 c220 188 530 175 735 -30 294
-294 156 -784 -255 -902 -99 -29 -141 -96 -113 -181 17 -50 66 -84 123 -84 52
0 163 37 254 85 133 70 256 199 326 340 60 123 76 188 82 340 4 110 2 143 -15
211 -77 305 -306 532 -602 598 -86 20 -220 27 -297 16z"/>
</g>
</svg>
